<?xml version="1.0" encoding="UTF-8"?>
<svg version="1.1" id="圖層_1" xmlns="http://www.w3.org/2000/svg" x="0" y="0" viewBox="0 0 100 100" xml:space="preserve"><path d="M47.219 90.999c-2.499 0-4.282-1.336-5.018-3.759-.6-1.973-1.302-3.944-1.944-5.683a138.287 138.287 0 0 0-4.948-2.191 142.981 142.981 0 0 0-5.609 2.676c-.756.378-1.488.562-2.237.562-1.271 0-2.415-.52-3.401-1.544a199.217 199.217 0 0 0-5.06-5.064c-1.575-1.526-1.922-3.534-.952-5.509.39-.794.76-1.592 1.151-2.437.474-1.023.961-2.075 1.49-3.125a52.278 52.278 0 0 1-2.238-5.076c-.86-.287-1.708-.579-2.534-.864-1.165-.402-2.369-.818-3.542-1.192-2.183-.696-3.413-2.398-3.373-4.668.044-2.516.044-4.813-.002-7.024-.047-2.315 1.2-4.055 3.421-4.774a167.467 167.467 0 0 0 6.1-2.095 128.4 128.4 0 0 0 2.253-4.907 151.942 151.942 0 0 0-2.671-5.602c-1.007-2.024-.651-4.081.977-5.645a143.736 143.736 0 0 0 4.939-4.946c1.219-1.289 2.537-1.559 3.427-1.559 1.017 0 1.825.344 2.344.602 1.682.837 3.64 1.8 5.634 2.708 1.7-.642 3.337-1.301 4.879-1.963.804-2.044 1.516-4.07 2.06-5.647.717-2.079 2.382-3.271 4.568-3.271l.11.001a213.6 213.6 0 0 0 3.538.029c1.166 0 2.389-.009 3.637-.027h.086c2.136 0 3.767 1.182 4.473 3.243a190.7 190.7 0 0 0 1.173 3.284c.282.775.571 1.57.854 2.37 1.001.354 1.962.735 2.899 1.105.712.282 1.392.552 2.069.802a137.177 137.177 0 0 0 5.579-2.662c.808-.405 1.572-.601 2.341-.601.891 0 2.21.272 3.436 1.568.765.81 1.577 1.63 2.362 2.423.898.907 1.826 1.845 2.73 2.81 1.203 1.287 1.564 3.482.841 5.106a154.39 154.39 0 0 1-1.587 3.409c-.424.891-.83 1.744-1.22 2.599.26.691.538 1.382.827 2.105.358.896.726 1.819 1.073 2.763.89.308 1.761.634 2.608.95.976.364 1.897.708 2.829 1.023 2.212.747 3.452 2.528 3.401 4.886-.06 2.701-.058 4.772.007 6.714.046 1.392-.347 3.888-3.49 4.967-1.97.68-3.733 1.327-5.359 1.97a131.92 131.92 0 0 0-1.835 4.891c.378.822.775 1.654 1.16 2.463a148.095 148.095 0 0 1 1.603 3.437c.657 1.466.613 3.707-.747 5.148-.692.734-1.439 1.509-2.284 2.369-.288.294-.579.587-.869.88a126.84 126.84 0 0 0-2.261 2.325 4.25 4.25 0 0 1-3.118 1.371c-1.2 0-2.09-.498-2.569-.765-.042-.023-.084-.048-.126-.069-.325-.158-.66-.311-.996-.465-.205-.094-.411-.186-.616-.283a222.194 222.194 0 0 1-3.613-1.716 87.727 87.727 0 0 1-5.025 2.171c-.238.701-.48 1.395-.717 2.072a108.133 108.133 0 0 0-1.291 3.83c-.686 2.218-2.41 3.49-4.73 3.49l-.155-.002c-.958-.02-2.22-.041-3.467-.041-1.091 0-2.069.016-2.991.05-.099.002-.193.004-.284.004z" fill="#d1d1d1"/><path d="M73.894 79.174c-.406.058-.832-.27-1.234-.465-.554-.271-1.118-.518-1.677-.777-.919-.427-1.837-.856-2.749-1.296-.502-.243-1.003-.487-1.501-.737-.697-.349-1.171-.243-1.83.072a83.265 83.265 0 0 1-5.858 2.531c-.697.269-1.098.61-1.328 1.306-.736 2.221-1.567 4.412-2.258 6.647-.251.813-.649 1.009-1.429.993-2.218-.044-4.439-.069-6.656.009-1.003.036-1.484-.254-1.785-1.245-.68-2.237-1.473-4.442-2.29-6.633-.146-.391-.575-.775-.969-.959a142.146 142.146 0 0 0-6.177-2.734c-.465-.191-1.139-.257-1.579-.065a139.898 139.898 0 0 0-6.46 3.057c-.636.318-1.015.237-1.503-.27a205.061 205.061 0 0 0-5.149-5.153c-.472-.458-.52-.822-.236-1.402.977-1.988 1.844-4.032 2.863-5.997.465-.897.348-1.561-.089-2.424-.905-1.783-1.732-3.618-2.409-5.497-.298-.825-.716-1.213-1.487-1.465-2.225-.728-4.423-1.535-6.652-2.248-.673-.214-.922-.518-.91-1.232a187.75 187.75 0 0 0-.002-7.159c-.016-.768.26-1.102.971-1.332 2.306-.747 4.6-1.531 6.871-2.376.43-.16.865-.6 1.071-1.021a130.269 130.269 0 0 0 2.816-6.14c.193-.453.249-1.121.059-1.553-.958-2.181-1.994-4.328-3.055-6.461-.313-.628-.256-1.018.26-1.513a149.146 149.146 0 0 0 5.058-5.066c.554-.586.985-.536 1.619-.221 2.133 1.061 4.275 2.107 6.449 3.08.411.185 1.033.14 1.474-.025a122.46 122.46 0 0 0 6.038-2.429c.463-.202.977-.63 1.158-1.078.857-2.13 1.633-4.294 2.381-6.465.23-.668.568-.895 1.27-.884 2.428.041 4.858.037 7.285.002.663-.009.95.243 1.158.85.731 2.134 1.54 4.241 2.279 6.373.24.69.613 1.03 1.345 1.274 2.016.673 3.966 1.545 5.969 2.261.474.169 1.132.208 1.575.013a136.515 136.515 0 0 0 6.344-3.005c.658-.33 1.078-.333 1.615.235 1.668 1.764 3.42 3.447 5.08 5.219.244.26.339.913.191 1.246-1.003 2.251-2.12 4.452-3.121 6.705-.182.406-.125 1.02.037 1.459.716 1.958 1.557 3.871 2.255 5.835.258.725.554 1.18 1.331 1.438 2.061.684 4.074 1.513 6.132 2.209.773.261 1.011.659.994 1.454-.051 2.301-.068 4.607.007 6.908.029.896-.327 1.236-1.1 1.501a130.889 130.889 0 0 0-6.227 2.31c-.422.17-.845.64-1.02 1.071a133.076 133.076 0 0 0-2.37 6.323c-.14.406-.098.98.08 1.375.979 2.172 2.053 4.3 3.025 6.475.157.352.142 1.026-.089 1.272-.737.781-1.483 1.552-2.236 2.317-1.066 1.086-2.146 2.157-3.186 3.267a.76.76 0 0 1-.439.24zm-8.407-29.532c.023-8.219-6.59-14.945-14.722-14.972-8.353-.028-15.059 6.509-15.089 14.709-.031 8.394 6.548 15.09 14.838 15.102 8.286.013 14.95-6.592 14.973-14.839z" fill="#464646"/><metadata xmlns:d="https://loading.io/stock/"><d:name>gear</d:name><d:tags>engine,machine,config,setting,gear,map</d:tags><d:license>free</d:license><d:slug>ix7bcb</d:slug></metadata><script xmlns=""/></svg>